<svg width="16" height="16" viewBox="0 0 16 16" fill="none" xmlns="http://www.w3.org/2000/svg">
<g id="Add" clip-path="url(#clip0_1229_19973)">
<path id="Shape" d="M7.74764 -1C8.12734 -1 8.44119 -0.717987 8.49093 -0.351922L8.4978 -0.250152L8.499 7H15.7521C16.1663 7 16.5021 7.33579 16.5021 7.75C16.5021 8.1297 16.2199 8.44349 15.8539 8.49315L15.7521 8.5H8.499L8.50105 15.7491C8.50113 16.1633 8.16541 16.4993 7.7512 16.4993C7.3715 16.4993 7.05765 16.2173 7.00791 15.8512L7.00105 15.7494L6.999 8.5H-0.25C-0.664214 8.5 -1 8.16421 -1 7.75C-1 7.3703 -0.717846 7.05651 -0.35177 7.00685L-0.25 7H6.999L6.9978 -0.249848C6.99771 -0.664061 7.33343 -1 7.74764 -1Z" fill="#26272B"/>
</g>
<defs>
<clipPath id="clip0_1229_19973">
<rect width="16" height="16" fill="white"/>
</clipPath>
</defs>
</svg>
