<?xml version="1.0" encoding="utf-8"?>
<!-- Generator: Adobe Illustrator 26.0.1, SVG Export Plug-In . SVG Version: 6.00 Build 0)  -->
<svg version="1.1" id="Layer_1" xmlns="http://www.w3.org/2000/svg" xmlns:xlink="http://www.w3.org/1999/xlink" x="0px" y="0px"
viewBox="0 0 414.57 109.6" style="enable-background:new 0 0 414.57 109.6;" xml:space="preserve">
<style type="text/css">
.st0{fill:#535158;}
.st1{fill:#C8C8C8;}
.st2{fill:#14365D;}
.st3{fill:#6B6B6B;}
</style>
<g>
<circle class="st0" cx="52.06" cy="98.64" r="10.96"/>
<path class="st1" d="M30.96,36.44c-2.3,0.02-4.37-1.4-5.18-3.56l-7.73-21.92H5.48C2.45,10.96,0,8.51,0,5.48S2.45,0,5.48,0h16.44
c2.31,0.01,4.38,1.46,5.15,3.64l9.04,25.48c1.01,2.85-0.48,5.99-3.33,7C32.2,36.33,31.58,36.44,30.96,36.44z"/>
<path class="st2" d="M110.75,79.46H42.5c-2.44,0-4.59-1.62-5.26-3.97L21.92,21.92h99.93c3.03-0.01,5.48,2.44,5.49,5.47
c0,0.43-0.05,0.85-0.15,1.27l-10.96,46.58C115.63,77.77,113.34,79.53,110.75,79.46z"/>
<circle class="st0" cx="101.38" cy="98.64" r="10.96"/>
</g>
<g>
<path class="st3" d="M214.25,49.02h-52.56c0.4,6.48,2.62,11.54,6.66,15.18c4.04,3.64,8.94,5.46,14.7,5.46
c4.72,0,8.66-1.1,11.82-3.3c3.16-2.2,5.38-5.14,6.66-8.82h11.76c-1.76,6.32-5.28,11.46-10.56,15.42s-11.84,5.94-19.68,5.94
c-6.24,0-11.82-1.4-16.74-4.2c-4.92-2.8-8.78-6.78-11.58-11.94c-2.8-5.16-4.2-11.14-4.2-17.94c0-6.8,1.36-12.76,4.08-17.88
c2.72-5.12,6.54-9.06,11.46-11.82c4.92-2.76,10.58-4.14,16.98-4.14c6.24,0,11.76,1.36,16.56,4.08c4.8,2.72,8.5,6.46,11.1,11.22
c2.6,4.76,3.9,10.14,3.9,16.14C214.61,44.5,214.49,46.7,214.25,49.02z M200.57,29.4c-1.84-3-4.34-5.28-7.5-6.84
c-3.16-1.56-6.66-2.34-10.5-2.34c-5.52,0-10.22,1.76-14.1,5.28c-3.88,3.52-6.1,8.4-6.66,14.64h41.52
C203.33,35.98,202.41,32.4,200.57,29.4z"/>
<path class="st3" d="M232.41,76.82c-2.67-1.15-4.77-2.75-6.32-4.8c-1.55-2.05-2.4-4.41-2.56-7.08h7.52
c0.21,2.19,1.24,3.97,3.08,5.36c1.84,1.39,4.25,2.08,7.24,2.08c2.77,0,4.96-0.61,6.56-1.84c1.6-1.23,2.4-2.77,2.4-4.64
c0-1.92-0.85-3.35-2.56-4.28c-1.71-0.93-4.35-1.85-7.92-2.76c-3.25-0.85-5.91-1.72-7.96-2.6c-2.05-0.88-3.81-2.19-5.28-3.92
c-1.47-1.73-2.2-4.01-2.2-6.84c0-2.24,0.67-4.29,2-6.16c1.33-1.87,3.23-3.35,5.68-4.44c2.45-1.09,5.25-1.64,8.4-1.64
c4.85,0,8.77,1.23,11.76,3.68c2.99,2.45,4.59,5.81,4.8,10.08h-7.28c-0.16-2.29-1.08-4.13-2.76-5.52c-1.68-1.39-3.93-2.08-6.76-2.08
c-2.61,0-4.69,0.56-6.24,1.68c-1.55,1.12-2.32,2.59-2.32,4.4c0,1.44,0.47,2.63,1.4,3.56c0.93,0.93,2.11,1.68,3.52,2.24
c1.41,0.56,3.37,1.19,5.88,1.88c3.15,0.85,5.71,1.69,7.68,2.52c1.97,0.83,3.67,2.07,5.08,3.72c1.41,1.65,2.15,3.81,2.2,6.48
c0,2.4-0.67,4.56-2,6.48s-3.21,3.43-5.64,4.52c-2.43,1.09-5.21,1.64-8.36,1.64C238.09,78.54,235.08,77.97,232.41,76.82z"/>
<path class="st3" d="M298.41,35.3c2.67,1.41,4.76,3.53,6.28,6.36c1.52,2.83,2.28,6.27,2.28,10.32v25.84h-7.2v-24.8
c0-4.37-1.09-7.72-3.28-10.04c-2.19-2.32-5.17-3.48-8.96-3.48c-3.84,0-6.89,1.2-9.16,3.6c-2.27,2.4-3.4,5.89-3.4,10.48v24.24h-7.28
v-59.2h7.28v21.6c1.44-2.24,3.43-3.97,5.96-5.2c2.53-1.23,5.37-1.84,8.52-1.84C292.76,33.18,295.74,33.89,298.41,35.3z"/>
<path class="st3" d="M326.85,75.74c-3.33-1.87-5.95-4.52-7.84-7.96c-1.89-3.44-2.84-7.43-2.84-11.96c0-4.48,0.97-8.44,2.92-11.88
c1.95-3.44,4.6-6.08,7.96-7.92c3.36-1.84,7.12-2.76,11.28-2.76c4.16,0,7.92,0.92,11.28,2.76c3.36,1.84,6.01,4.47,7.96,7.88
c1.95,3.41,2.92,7.39,2.92,11.92c0,4.53-1,8.52-3,11.96s-4.71,6.09-8.12,7.96c-3.41,1.87-7.2,2.8-11.36,2.8
C333.9,78.54,330.18,77.61,326.85,75.74z M345.37,70.3c2.29-1.23,4.15-3.07,5.56-5.52c1.41-2.45,2.12-5.44,2.12-8.96
s-0.69-6.51-2.08-8.96c-1.39-2.45-3.2-4.28-5.44-5.48c-2.24-1.2-4.67-1.8-7.28-1.8c-2.67,0-5.11,0.6-7.32,1.8
c-2.21,1.2-3.99,3.03-5.32,5.48c-1.33,2.45-2,5.44-2,8.96c0,3.57,0.65,6.59,1.96,9.04c1.31,2.45,3.05,4.28,5.24,5.48
c2.19,1.2,4.59,1.8,7.2,1.8C340.62,72.14,343.08,71.53,345.37,70.3z"/>
<path class="st3" d="M383.81,35.78c2.85-1.68,6.17-2.52,9.96-2.52c3.89,0,7.43,0.93,10.6,2.8c3.17,1.87,5.67,4.49,7.48,7.88
c1.81,3.39,2.72,7.32,2.72,11.8c0,4.43-0.91,8.37-2.72,11.84c-1.81,3.47-4.31,6.16-7.48,8.08c-3.17,1.92-6.71,2.88-10.6,2.88
c-3.73,0-7.03-0.84-9.88-2.52c-2.85-1.68-5.03-3.77-6.52-6.28v28.88h-7.28V33.98h7.28v8.08C378.81,39.55,380.96,37.46,383.81,35.78
z M405.13,47.1c-1.33-2.45-3.13-4.32-5.4-5.6c-2.27-1.28-4.76-1.92-7.48-1.92c-2.67,0-5.13,0.65-7.4,1.96
c-2.27,1.31-4.08,3.2-5.44,5.68c-1.36,2.48-2.04,5.35-2.04,8.6c0,3.31,0.68,6.2,2.04,8.68c1.36,2.48,3.17,4.37,5.44,5.68
c2.27,1.31,4.73,1.96,7.4,1.96c2.72,0,5.21-0.65,7.48-1.96c2.27-1.31,4.07-3.2,5.4-5.68c1.33-2.48,2-5.4,2-8.76
C407.13,52.43,406.46,49.55,405.13,47.1z"/>
</g>
</svg>
