<svg width="1440" height="274" viewBox="0 0 1440 274" fill="none" xmlns="http://www.w3.org/2000/svg">
<g clip-path="url(#clip0_954_14926)">
<path d="M370.433 200.11C381.468 200.11 390.414 191.164 390.414 180.13C390.414 169.095 381.468 160.149 370.433 160.149C359.399 160.149 350.453 169.095 350.453 180.13C350.453 191.164 359.399 200.11 370.433 200.11Z" fill="#255EAE"/>
<path d="M437.37 84.9406L406.028 116.282C398.225 124.086 398.225 136.735 406.028 144.539C413.832 152.342 426.481 152.342 434.285 144.539L465.627 113.197C473.43 105.394 473.43 92.7442 465.627 84.9406C457.823 77.137 445.174 77.137 437.37 84.9406Z" fill="#255EAE"/>
<path d="M715.323 259.074L683.982 290.416C676.178 298.22 676.178 310.869 683.982 318.673C691.785 326.476 704.435 326.476 712.238 318.673L743.58 287.331C751.384 279.527 751.384 266.878 743.58 259.074C735.776 251.271 723.127 251.271 715.323 259.074Z" fill="#255EAE"/>
<path d="M629.016 175.849L660.357 144.508C668.161 136.704 668.161 124.055 660.357 116.251C652.554 108.448 639.904 108.448 632.101 116.251L600.759 147.593C592.955 155.396 592.955 168.046 600.759 175.849C608.563 183.653 621.212 183.653 629.016 175.849Z" fill="#255EAE"/>
<path d="M597.162 264.211L535.579 325.794C527.776 333.597 527.776 346.247 535.579 354.05C543.383 361.854 556.032 361.854 563.836 354.05L625.418 292.468C633.222 284.664 633.222 272.015 625.418 264.211C617.615 256.407 604.965 256.407 597.162 264.211Z" fill="#255EAE"/>
<path d="M583.222 108.618C591.026 100.814 591.026 88.1651 583.222 80.3615C575.419 72.5579 562.769 72.5579 554.966 80.3615L509.497 125.83C501.694 133.634 501.694 146.283 509.497 154.087C517.301 161.89 529.95 161.89 537.754 154.087L583.222 108.618Z" fill="#255EAE"/>
<path d="M820.043 323.886L865.511 278.418C873.315 270.614 873.315 257.965 865.511 250.161C857.708 242.358 845.058 242.358 837.255 250.161L791.786 295.63C783.983 303.433 783.983 316.083 791.786 323.886C799.59 331.69 812.239 331.69 820.043 323.886Z" fill="#255EAE"/>
<path d="M278.963 17.3039L272.193 24.0743C264.389 31.8779 264.389 44.5273 272.193 52.3309C279.996 60.1345 292.645 60.1345 300.449 52.3309L307.22 45.5604C315.023 37.7568 315.023 25.1075 307.22 17.3039C299.416 9.50027 286.767 9.50027 278.963 17.3039Z" fill="#255EAE"/>
<path d="M404.513 -51.7365C412.316 -59.5401 412.316 -72.1894 404.513 -79.993C396.709 -87.7966 384.06 -87.7966 376.256 -79.993L325.837 -29.5739C318.033 -21.7703 318.033 -9.12096 325.837 -1.31736C333.641 6.48624 346.29 6.48624 354.094 -1.31736L404.513 -51.7365Z" fill="#255EAE"/>
<path d="M1440 449.765V-407L1390.81 -406.975V-406.604H476.827L439.586 -369.363C431.783 -361.56 419.133 -361.56 411.33 -369.363C403.526 -377.167 403.526 -389.816 411.33 -397.62L420.317 -406.607H250.783L232.747 -388.571C224.944 -380.767 224.944 -368.118 232.747 -360.314C240.551 -352.511 253.2 -352.511 261.004 -360.314L270.158 -369.468C277.961 -377.272 290.61 -377.272 298.414 -369.468C306.218 -361.664 306.218 -349.015 298.414 -341.211L233.217 -276.014C225.413 -268.211 225.413 -255.562 233.217 -247.758C241.021 -239.954 253.67 -239.954 261.474 -247.758L361.488 -347.772C369.292 -355.576 381.941 -355.576 389.745 -347.772C397.548 -339.969 397.548 -327.32 389.745 -319.516L334.089 -263.86C326.286 -256.057 326.286 -243.408 334.089 -235.604C341.893 -227.8 354.542 -227.8 362.346 -235.604L437.565 -310.824C445.369 -318.627 458.018 -318.627 465.822 -310.824C473.626 -303.02 473.626 -290.371 465.822 -282.567L415.683 -232.428C407.88 -224.625 407.88 -211.975 415.683 -204.172C423.487 -196.368 436.136 -196.368 443.94 -204.172L468.001 -228.233C475.805 -236.037 488.454 -236.037 496.258 -228.233C504.062 -220.43 504.062 -207.78 496.258 -199.977L424.562 -128.281C416.759 -120.477 416.759 -107.828 424.562 -100.025C432.366 -92.2209 445.015 -92.2209 452.819 -100.025L496.267 -143.472C504.07 -151.276 516.72 -151.276 524.523 -143.472C532.327 -135.669 532.327 -123.019 524.523 -115.216L501.356 -92.0483C493.552 -84.2447 493.552 -71.5953 501.356 -63.7917C509.159 -55.9881 521.809 -55.9881 529.612 -63.7917L769.192 -303.371L601.274 -135.453C609.078 -143.257 621.727 -143.257 629.531 -135.453C637.334 -127.65 637.334 -115.001 629.531 -107.197L487.752 34.5811C479.949 42.3847 479.949 55.0341 487.752 62.8377C495.556 70.6413 508.205 70.6413 516.009 62.8377L581.413 -2.56592C589.216 -10.3695 601.866 -10.3695 609.669 -2.56592C617.473 5.2377 617.473 17.887 609.669 25.6906L605.146 30.2137C597.343 38.0173 597.343 50.6667 605.146 58.4703C612.95 66.2739 625.599 66.2739 633.403 58.4703L669.409 22.4639C677.213 14.6603 689.862 14.6603 697.666 22.4639C705.469 30.2675 705.469 42.9169 697.666 50.7205L682.441 65.9456C674.637 73.7491 674.637 86.3985 682.441 94.2021C690.244 102.006 702.893 102.006 710.697 94.2021L764.643 40.2562C772.447 32.4526 785.096 32.4526 792.899 40.2562C800.703 48.0598 800.703 60.7092 792.899 68.5128L647.513 213.9C639.709 221.703 639.709 234.353 647.513 242.156C655.316 249.96 667.966 249.96 675.769 242.156L768.891 149.034C776.695 141.23 789.344 141.23 797.148 149.034C804.952 156.837 804.952 169.487 797.148 177.29L763.644 210.795C755.84 218.598 755.84 231.248 763.644 239.051C771.447 246.855 784.097 246.855 791.9 239.051L892.662 138.289C900.466 130.486 913.115 130.486 920.919 138.289C928.722 146.093 928.722 158.742 920.919 166.546L886.885 200.58C879.082 208.383 879.082 221.032 886.885 228.836C894.689 236.64 907.338 236.64 915.142 228.836L932.348 211.63C940.152 203.826 952.801 203.826 960.605 211.63C968.408 219.433 968.408 232.083 960.605 239.886L910.907 289.584C903.104 297.387 903.104 310.037 910.907 317.84C918.711 325.644 931.36 325.644 939.164 317.84L948.318 308.686C956.121 300.883 968.771 300.883 976.574 308.686C984.378 316.49 984.378 329.139 976.574 336.943L911.377 402.14C903.573 409.943 903.573 422.593 911.377 430.396C919.181 438.2 931.83 438.2 939.634 430.396L1039.65 330.382C1047.45 322.578 1060.1 322.578 1067.9 330.382C1075.71 338.185 1075.71 350.835 1067.9 358.638L1012.25 414.294C1004.45 422.098 1004.45 434.747 1012.25 442.55C1020.05 450.354 1032.7 450.354 1040.51 442.55L1115.73 367.331C1123.53 359.527 1136.18 359.527 1143.98 367.331C1151.79 375.134 1151.79 387.784 1143.98 395.587L1093.84 445.726C1092.6 446.972 1091.55 448.339 1090.71 449.791H1440.04L1440 449.765ZM519.779 -336.533L515.664 -332.417C507.86 -324.614 495.211 -324.614 487.407 -332.417C479.604 -340.221 479.604 -352.87 487.407 -360.674L491.523 -364.789C499.326 -372.593 511.976 -372.593 519.779 -364.789C527.583 -356.986 527.583 -344.336 519.779 -336.533ZM605.497 -196.209L574.359 -165.072C566.556 -157.268 553.906 -157.268 546.103 -165.072C538.299 -172.875 538.299 -185.524 546.103 -193.328L577.241 -224.466C585.044 -232.27 597.693 -232.27 605.497 -224.466C613.301 -216.662 613.301 -204.013 605.497 -196.209ZM685.458 -276.17L655.344 -246.057C647.541 -238.253 634.892 -238.253 627.088 -246.057C619.284 -253.86 619.284 -266.51 627.088 -274.313L657.201 -304.427C665.005 -312.23 677.654 -312.23 685.458 -304.427C693.261 -296.623 693.261 -283.974 685.458 -276.17ZM735.809 -156.991C743.613 -164.794 756.262 -164.794 764.065 -156.991C771.869 -149.187 771.869 -136.538 764.065 -128.734C756.262 -120.93 743.613 -120.93 735.809 -128.734C728.005 -136.538 728.005 -149.187 735.809 -156.991ZM659.497 -24.168C651.693 -16.3644 639.044 -16.3644 631.24 -24.168C623.437 -31.9716 623.437 -44.621 631.24 -52.4246L686.986 -108.171C694.79 -115.974 707.439 -115.974 715.243 -108.171C723.046 -100.367 723.046 -87.7177 715.243 -79.9141L659.497 -24.168ZM747.49 0.858948C739.687 8.66254 727.037 8.66254 719.234 0.858948C711.43 -6.94464 711.43 -19.594 719.234 -27.3976L783.197 -91.3605C791 -99.1641 803.65 -99.1641 811.453 -91.3605C819.257 -83.5569 819.257 -70.9075 811.453 -63.1039L747.49 0.858948ZM879.418 94.9748L846.97 127.423C839.166 135.227 826.517 135.227 818.713 127.423C810.91 119.62 810.91 106.97 818.713 99.1667L851.162 66.7183C858.965 58.9147 871.615 58.9147 879.418 66.7183C887.222 74.5219 887.222 87.1712 879.418 94.9748ZM1010.42 190.016C1002.62 197.82 989.968 197.82 982.164 190.016C974.361 182.213 974.361 169.563 982.164 161.76C989.968 153.956 1002.62 153.956 1010.42 161.76C1018.22 169.563 1018.22 182.213 1010.42 190.016ZM1117.72 308.766C1109.91 316.569 1097.26 316.569 1089.46 308.766C1081.66 300.962 1081.66 288.313 1089.46 280.509L1135.13 234.837C1142.93 227.033 1155.58 227.033 1163.39 234.837C1171.19 242.64 1171.19 255.29 1163.39 263.093L1117.72 308.766ZM1197.91 341.596L1193.79 345.712C1185.99 353.515 1173.34 353.515 1165.54 345.712C1157.73 337.908 1157.73 325.259 1165.54 317.455L1169.65 313.34C1177.46 305.536 1190.1 305.536 1197.91 313.34C1205.71 321.143 1205.71 333.793 1197.91 341.596ZM1363.64 401.902L1333.53 432.016C1325.73 439.819 1313.08 439.819 1305.27 432.016C1297.47 424.212 1297.47 411.562 1305.27 403.759L1335.39 373.646C1343.19 365.842 1355.84 365.842 1363.64 373.646C1371.45 381.449 1371.45 394.099 1363.64 401.902Z" fill="#255EAE"/>
</g>
<defs>
<clipPath id="clip0_954_14926">
<rect width="1440" height="856.765" fill="white" transform="translate(0 -407)"/>
</clipPath>
</defs>
</svg>
