<svg width="1440" height="150" viewBox="0 0 1440 150" fill="none" xmlns="http://www.w3.org/2000/svg">
<g clip-path="url(#clip0_949_11248)">
<path d="M370.433 94.1099C381.468 94.1099 390.414 85.1645 390.414 74.1297C390.414 63.0949 381.468 54.1494 370.433 54.1494C359.399 54.1494 350.453 63.0949 350.453 74.1297C350.453 85.1645 359.399 94.1099 370.433 94.1099Z" fill="#183D71"/>
<path d="M437.37 -21.0594L406.028 10.2823C398.225 18.0859 398.225 30.7353 406.028 38.5389C413.832 46.3425 426.481 46.3425 434.285 38.5389L465.627 7.19713C473.43 -0.60647 473.43 -13.2558 465.627 -21.0594C457.823 -28.863 445.174 -28.863 437.37 -21.0594Z" fill="#183D71"/>
<path d="M715.323 153.074L683.982 184.416C676.178 192.22 676.178 204.869 683.982 212.673C691.785 220.476 704.435 220.476 712.238 212.673L743.58 181.331C751.384 173.527 751.384 160.878 743.58 153.074C735.776 145.271 723.127 145.271 715.323 153.074Z" fill="#183D71"/>
<path d="M629.016 69.8494L660.357 38.5077C668.161 30.7041 668.161 18.0547 660.357 10.2511C652.554 2.44754 639.904 2.44754 632.101 10.2511L600.759 41.5929C592.955 49.3965 592.955 62.0458 600.759 69.8494C608.563 77.653 621.212 77.653 629.016 69.8494Z" fill="#183D71"/>
<path d="M583.222 2.61806C591.026 -5.18554 591.026 -17.8349 583.222 -25.6385C575.419 -33.4421 562.769 -33.4421 554.966 -25.6385L509.497 19.8301C501.694 27.6337 501.694 40.2831 509.497 48.0867C517.301 55.8903 529.95 55.8903 537.754 48.0867L583.222 2.61806Z" fill="#183D71"/>
<path d="M820.043 217.886L865.511 172.418C873.315 164.614 873.315 151.965 865.511 144.161C857.708 136.358 845.058 136.358 837.255 144.161L791.786 189.63C783.983 197.433 783.983 210.083 791.786 217.886C799.59 225.69 812.239 225.69 820.043 217.886Z" fill="#183D71"/>
<path d="M1440 343.765V-513L1390.81 -512.975V-512.604H476.827L439.586 -475.363C431.783 -467.56 419.133 -467.56 411.33 -475.363C403.526 -483.167 403.526 -495.816 411.33 -503.62L420.317 -512.607H250.783L232.747 -494.571C224.944 -486.767 224.944 -474.118 232.747 -466.314C240.551 -458.511 253.2 -458.511 261.004 -466.314L270.158 -475.468C277.961 -483.272 290.61 -483.272 298.414 -475.468C306.218 -467.664 306.218 -455.015 298.414 -447.211L233.217 -382.014C225.413 -374.211 225.413 -361.562 233.217 -353.758C241.021 -345.954 253.67 -345.954 261.474 -353.758L361.488 -453.772C369.292 -461.576 381.941 -461.576 389.745 -453.772C397.548 -445.969 397.548 -433.32 389.745 -425.516L334.089 -369.86C326.286 -362.057 326.286 -349.408 334.089 -341.604C341.893 -333.8 354.542 -333.8 362.346 -341.604L437.565 -416.824C445.369 -424.627 458.018 -424.627 465.822 -416.824C473.626 -409.02 473.626 -396.371 465.822 -388.567L415.683 -338.428C407.88 -330.625 407.88 -317.975 415.683 -310.172C423.487 -302.368 436.136 -302.368 443.94 -310.172L468.001 -334.233C475.805 -342.037 488.454 -342.037 496.258 -334.233C504.062 -326.43 504.062 -313.78 496.258 -305.977L424.562 -234.281C416.759 -226.477 416.759 -213.828 424.562 -206.025C432.366 -198.221 445.015 -198.221 452.819 -206.025L496.267 -249.472C504.07 -257.276 516.72 -257.276 524.523 -249.472C532.327 -241.669 532.327 -229.019 524.523 -221.216L501.356 -198.048C493.552 -190.245 493.552 -177.595 501.356 -169.792C509.159 -161.988 521.809 -161.988 529.612 -169.792L769.192 -409.371L601.274 -241.453C609.078 -249.257 621.727 -249.257 629.531 -241.453C637.334 -233.65 637.334 -221.001 629.531 -213.197L487.752 -71.4189C479.949 -63.6153 479.949 -50.9659 487.752 -43.1623C495.556 -35.3587 508.205 -35.3587 516.009 -43.1623L581.413 -108.566C589.216 -116.37 601.866 -116.37 609.669 -108.566C617.473 -100.762 617.473 -88.113 609.669 -80.3094L605.146 -75.7863C597.343 -67.9827 597.343 -55.3333 605.146 -47.5297C612.95 -39.7261 625.599 -39.7261 633.403 -47.5297L669.409 -83.5361C677.213 -91.3397 689.862 -91.3397 697.666 -83.5361C705.469 -75.7325 705.469 -63.0831 697.666 -55.2795L682.441 -40.0544C674.637 -32.2509 674.637 -19.6015 682.441 -11.7979C690.244 -3.99429 702.893 -3.99429 710.697 -11.7979L764.643 -65.7438C772.447 -73.5474 785.096 -73.5474 792.899 -65.7438C800.703 -57.9402 800.703 -45.2908 792.899 -37.4872L647.513 107.9C639.709 115.703 639.709 128.353 647.513 136.156C655.316 143.96 667.966 143.96 675.769 136.156L768.891 43.0339C776.695 35.2303 789.344 35.2303 797.148 43.0339C804.952 50.8375 804.952 63.4869 797.148 71.2905L763.644 104.795C755.84 112.598 755.84 125.248 763.644 133.051C771.447 140.855 784.097 140.855 791.9 133.051L892.662 32.2894C900.466 24.4858 913.115 24.4858 920.919 32.2894C928.722 40.0931 928.722 52.7424 920.919 60.546L886.885 94.5795C879.082 102.383 879.082 115.032 886.885 122.836C894.689 130.64 907.338 130.64 915.142 122.836L932.348 105.63C940.152 97.8261 952.801 97.8261 960.605 105.63C968.408 113.433 968.408 126.083 960.605 133.886L910.907 183.584C903.104 191.387 903.104 204.037 910.907 211.84C918.711 219.644 931.36 219.644 939.164 211.84L948.318 202.686C956.121 194.883 968.771 194.883 976.574 202.686C984.378 210.49 984.378 223.139 976.574 230.943L911.377 296.14C903.573 303.943 903.573 316.593 911.377 324.396C919.181 332.2 931.83 332.2 939.634 324.396L1039.65 224.382C1047.45 216.578 1060.1 216.578 1067.9 224.382C1075.71 232.185 1075.71 244.835 1067.9 252.638L1012.25 308.294C1004.45 316.098 1004.45 328.747 1012.25 336.55C1020.05 344.354 1032.7 344.354 1040.51 336.55L1115.73 261.331C1123.53 253.527 1136.18 253.527 1143.98 261.331C1151.79 269.134 1151.79 281.784 1143.98 289.587L1093.84 339.726C1092.6 340.972 1091.55 342.339 1090.71 343.791H1440.04L1440 343.765ZM519.779 -442.533L515.664 -438.417C507.86 -430.614 495.211 -430.614 487.407 -438.417C479.604 -446.221 479.604 -458.87 487.407 -466.674L491.523 -470.789C499.326 -478.593 511.976 -478.593 519.779 -470.789C527.583 -462.986 527.583 -450.336 519.779 -442.533ZM605.497 -302.209L574.359 -271.072C566.556 -263.268 553.906 -263.268 546.103 -271.072C538.299 -278.875 538.299 -291.524 546.103 -299.328L577.241 -330.466C585.044 -338.27 597.693 -338.27 605.497 -330.466C613.301 -322.662 613.301 -310.013 605.497 -302.209ZM685.458 -382.17L655.344 -352.057C647.541 -344.253 634.892 -344.253 627.088 -352.057C619.284 -359.86 619.284 -372.51 627.088 -380.313L657.201 -410.427C665.005 -418.23 677.654 -418.23 685.458 -410.427C693.261 -402.623 693.261 -389.974 685.458 -382.17ZM735.809 -262.991C743.613 -270.794 756.262 -270.794 764.065 -262.991C771.869 -255.187 771.869 -242.538 764.065 -234.734C756.262 -226.93 743.613 -226.93 735.809 -234.734C728.005 -242.538 728.005 -255.187 735.809 -262.991ZM659.497 -130.168C651.693 -122.364 639.044 -122.364 631.24 -130.168C623.437 -137.972 623.437 -150.621 631.24 -158.425L686.986 -214.171C694.79 -221.974 707.439 -221.974 715.243 -214.171C723.046 -206.367 723.046 -193.718 715.243 -185.914L659.497 -130.168ZM747.49 -105.141C739.687 -97.3375 727.037 -97.3375 719.234 -105.141C711.43 -112.945 711.43 -125.594 719.234 -133.398L783.197 -197.36C791 -205.164 803.65 -205.164 811.453 -197.36C819.257 -189.557 819.257 -176.908 811.453 -169.104L747.49 -105.141ZM879.418 -11.0252L846.97 21.4233C839.166 29.2269 826.517 29.2269 818.713 21.4233C810.91 13.6197 810.91 0.970337 818.713 -6.83325L851.162 -39.2817C858.965 -47.0853 871.615 -47.0853 879.418 -39.2817C887.222 -31.4781 887.222 -18.8288 879.418 -11.0252ZM1010.42 84.0162C1002.62 91.8198 989.968 91.8198 982.164 84.0162C974.361 76.2126 974.361 63.5633 982.164 55.7597C989.968 47.9561 1002.62 47.9561 1010.42 55.7597C1018.22 63.5633 1018.22 76.2126 1010.42 84.0162ZM1117.72 202.766C1109.91 210.569 1097.26 210.569 1089.46 202.766C1081.66 194.962 1081.66 182.313 1089.46 174.509L1135.13 128.837C1142.93 121.033 1155.58 121.033 1163.39 128.837C1171.19 136.64 1171.19 149.29 1163.39 157.093L1117.72 202.766ZM1197.91 235.596L1193.79 239.712C1185.99 247.515 1173.34 247.515 1165.54 239.712C1157.73 231.908 1157.73 219.259 1165.54 211.455L1169.65 207.34C1177.46 199.536 1190.1 199.536 1197.91 207.34C1205.71 215.143 1205.71 227.793 1197.91 235.596ZM1363.64 295.902L1333.53 326.016C1325.73 333.819 1313.08 333.819 1305.27 326.016C1297.47 318.212 1297.47 305.562 1305.27 297.759L1335.39 267.646C1343.19 259.842 1355.84 259.842 1363.64 267.646C1371.45 275.449 1371.45 288.099 1363.64 295.902Z" fill="#183D71"/>
</g>
<defs>
<clipPath id="clip0_949_11248">
<rect width="1440" height="856.765" fill="white" transform="translate(0 -513)"/>
</clipPath>
</defs>
</svg>
