<svg width="23" height="23" viewBox="0 0 23 23" fill="none" xmlns="http://www.w3.org/2000/svg">
<path fill-rule="evenodd" clip-rule="evenodd" d="M1.08767 22.1393C0.876345 22.1393 0.71081 22.0654 0.591061 21.9175C0.471312 21.7695 0.411438 21.597 0.411438 21.3997C0.411438 21.3434 0.52062 21.1866 0.738985 20.9295C0.957352 20.6724 1.24968 20.3502 1.61597 19.9627C1.98226 19.5753 2.40138 19.1421 2.87333 18.6631C3.34529 18.1841 3.83309 17.6928 4.33674 17.1891C4.84039 16.6855 5.34052 16.1889 5.83712 15.6993C6.33373 15.2098 6.79159 14.7607 7.21071 14.3521C7.62984 13.9436 7.98908 13.5914 8.28845 13.2955C8.54177 13.0452 8.72574 12.8629 8.84036 12.7488L8.896 12.6933C8.33952 12.017 7.91336 11.2756 7.61751 10.4691C7.32166 9.66256 7.17373 8.81903 7.17373 7.93852C7.17373 7.25525 7.26178 6.59663 7.43788 5.96267C7.61399 5.3287 7.86405 4.737 8.18808 4.18756C8.5121 3.63813 8.90129 3.13624 9.35563 2.6819C9.80997 2.22756 10.3119 1.83837 10.8613 1.51434C11.4107 1.19032 12.0024 0.940254 12.6364 0.764152C13.2704 0.588051 13.929 0.5 14.6123 0.5C15.2955 0.5 15.9541 0.588051 16.5881 0.764152C17.2221 0.940254 17.8138 1.19032 18.3632 1.51434C18.9127 1.83837 19.4145 2.22756 19.8689 2.6819C20.3232 3.13624 20.7124 3.63813 21.0364 4.18756C21.3605 4.737 21.6105 5.3287 21.7866 5.96267C21.9627 6.59663 22.0508 7.25525 22.0508 7.93852C22.0508 8.6218 21.9627 9.28042 21.7866 9.91438C21.6105 10.5483 21.3605 11.14 21.0364 11.6895C20.7124 12.2389 20.3232 12.7408 19.8689 13.1952C19.4145 13.6495 18.9127 14.0387 18.3632 14.3627C17.8138 14.6867 17.2221 14.9368 16.5881 15.1129C15.9541 15.289 15.2955 15.377 14.6123 15.377C13.7317 15.377 12.8882 15.2291 12.0817 14.9333C11.2751 14.6374 10.5337 14.2113 9.85752 13.6548L1.56314 21.9386C1.4293 22.0724 1.27081 22.1393 1.08767 22.1393ZM14.6123 14.0246C15.4505 14.0246 16.2394 13.8643 16.9791 13.5438C17.7187 13.2233 18.3632 12.7884 18.9127 12.2389C19.4621 11.6895 19.8971 11.045 20.2176 10.3053C20.5381 9.5657 20.6983 8.77677 20.6983 7.93852C20.6983 7.10028 20.5381 6.31135 20.2176 5.57172C19.8971 4.8321 19.4621 4.18756 18.9127 3.63813C18.3632 3.08869 17.7187 2.65372 16.9791 2.33322C16.2394 2.01271 15.4505 1.85246 14.6123 1.85246C13.774 1.85246 12.9851 2.01271 12.2455 2.33322C11.5058 2.65372 10.8613 3.08869 10.3119 3.63813C9.76242 4.18756 9.32745 4.8321 9.00695 5.57172C8.68644 6.31135 8.52619 7.10028 8.52619 7.93852C8.52619 8.77677 8.68644 9.5657 9.00695 10.3053C9.32745 11.045 9.76242 11.6895 10.3119 12.2389C10.8613 12.7884 11.5058 13.2233 12.2455 13.5438C12.9851 13.8643 13.774 14.0246 14.6123 14.0246Z" fill="white"/>
</svg>
