<svg width="175" height="36" viewBox="0 0 175 36" fill="none" xmlns="http://www.w3.org/2000/svg">
<path d="M18 4.64602L10.5754 12.0706C6.47487 16.1712 6.47487 22.8193 10.5754 26.9199C14.6759 31.0205 21.3242 31.0205 25.4245 26.9199C29.5251 22.8193 29.5251 16.1712 25.4245 12.0707L18 4.64602ZM18 0.403381L27.546 9.94932C32.8181 15.2214 32.8181 23.7691 27.546 29.0412C22.2738 34.3132 13.7261 34.3132 8.45406 29.0412C3.18198 23.7691 3.18198 15.2214 8.45406 9.94932L18 0.403381ZM10.5 19.4952H25.5C25.5 23.6375 22.1421 26.9952 18 26.9952C13.8579 26.9952 10.5 23.6375 10.5 19.4952Z" fill="#E83838"/>
<path d="M42.517 27V9.54545H46.2074V23.9574H53.6903V27H42.517ZM56.0661 27V13.9091H59.6967V27H56.0661ZM57.8899 12.2216C57.3501 12.2216 56.8871 12.0426 56.5007 11.6847C56.12 11.321 55.9297 10.8864 55.9297 10.3807C55.9297 9.88068 56.12 9.4517 56.5007 9.09375C56.8871 8.73011 57.3501 8.54829 57.8899 8.54829C58.4297 8.54829 58.8899 8.73011 59.2706 9.09375C59.657 9.4517 59.8501 9.88068 59.8501 10.3807C59.8501 10.8864 59.657 11.321 59.2706 11.6847C58.8899 12.0426 58.4297 12.2216 57.8899 12.2216ZM69.6449 13.9091V16.6364H61.5653V13.9091H69.6449ZM63.4148 27V12.9631C63.4148 12.0142 63.5994 11.2273 63.9688 10.6023C64.3438 9.97727 64.8551 9.50852 65.5028 9.19602C66.1506 8.88352 66.8864 8.72727 67.7102 8.72727C68.267 8.72727 68.7756 8.76989 69.2358 8.85511C69.7017 8.94034 70.0483 9.01705 70.2756 9.08523L69.6278 11.8125C69.4858 11.767 69.3097 11.7244 69.0994 11.6847C68.8949 11.6449 68.6847 11.625 68.4688 11.625C67.9347 11.625 67.5625 11.75 67.3523 12C67.142 12.2443 67.0369 12.5881 67.0369 13.0312V27H63.4148ZM77.3601 27.2557C76.0135 27.2557 74.8544 26.983 73.8828 26.4375C72.9169 25.8864 72.1726 25.108 71.6499 24.1023C71.1271 23.0909 70.8658 21.8949 70.8658 20.5142C70.8658 19.1676 71.1271 17.9858 71.6499 16.9688C72.1726 15.9517 72.9084 15.1591 73.8572 14.5909C74.8118 14.0227 75.9311 13.7386 77.2152 13.7386C78.0788 13.7386 78.8828 13.8778 79.6271 14.1562C80.3771 14.429 81.0305 14.8409 81.5874 15.392C82.1499 15.9432 82.5874 16.6364 82.8999 17.4716C83.2124 18.3011 83.3686 19.2727 83.3686 20.3864V21.3835H72.3146V19.1335H79.951C79.951 18.6108 79.8374 18.1477 79.6101 17.7443C79.3828 17.3409 79.0675 17.0256 78.6641 16.7983C78.2663 16.5653 77.8033 16.4489 77.2749 16.4489C76.7237 16.4489 76.2351 16.5767 75.8089 16.8324C75.3885 17.0824 75.0589 17.4205 74.8203 17.8466C74.5817 18.267 74.4595 18.7358 74.4538 19.2528V21.392C74.4538 22.0398 74.5732 22.5994 74.8118 23.071C75.0561 23.5426 75.3999 23.9062 75.843 24.1619C76.2862 24.4176 76.8118 24.5455 77.4197 24.5455C77.8232 24.5455 78.1925 24.4886 78.5277 24.375C78.8629 24.2614 79.1499 24.0909 79.3885 23.8636C79.6271 23.6364 79.8089 23.358 79.9339 23.0284L83.2919 23.25C83.1214 24.0568 82.772 24.7614 82.2436 25.3636C81.7209 25.9602 81.0447 26.4261 80.2152 26.7614C79.3913 27.0909 78.4396 27.2557 77.3601 27.2557ZM85.8061 27V9.54545H89.4964V23.9574H96.9794V27H85.8061ZM99.3551 27V13.9091H102.986V27H99.3551ZM101.179 12.2216C100.639 12.2216 100.176 12.0426 99.7898 11.6847C99.4091 11.321 99.2188 10.8864 99.2188 10.3807C99.2188 9.88068 99.4091 9.4517 99.7898 9.09375C100.176 8.73011 100.639 8.54829 101.179 8.54829C101.719 8.54829 102.179 8.73011 102.56 9.09375C102.946 9.4517 103.139 9.88068 103.139 10.3807C103.139 10.8864 102.946 11.321 102.56 11.6847C102.179 12.0426 101.719 12.2216 101.179 12.2216ZM109.525 19.4318V27H105.894V13.9091H109.354V16.2188H109.508C109.798 15.4574 110.283 14.8551 110.965 14.4119C111.647 13.9631 112.474 13.7386 113.445 13.7386C114.354 13.7386 115.147 13.9375 115.823 14.3352C116.499 14.733 117.025 15.3011 117.4 16.0398C117.775 16.7727 117.962 17.6477 117.962 18.6648V27H114.332V19.3125C114.337 18.5114 114.133 17.8864 113.718 17.4375C113.303 16.983 112.732 16.7557 112.005 16.7557C111.516 16.7557 111.085 16.8608 110.71 17.071C110.34 17.2812 110.05 17.5881 109.84 17.9915C109.636 18.3892 109.531 18.8693 109.525 19.4318ZM124.114 23.233L124.122 18.8778H124.651L128.844 13.9091H133.011L127.378 20.4886H126.517L124.114 23.233ZM120.824 27V9.54545H124.455V27H120.824ZM129.006 27L125.153 21.2983L127.574 18.733L133.259 27H129.006ZM136.915 27.2216C136.352 27.2216 135.869 27.0227 135.466 26.625C135.068 26.2216 134.869 25.7386 134.869 25.1761C134.869 24.6193 135.068 24.142 135.466 23.7443C135.869 23.3466 136.352 23.1477 136.915 23.1477C137.46 23.1477 137.938 23.3466 138.347 23.7443C138.756 24.142 138.96 24.6193 138.96 25.1761C138.96 25.5511 138.864 25.8949 138.67 26.2074C138.483 26.5142 138.236 26.7614 137.929 26.9489C137.622 27.1307 137.284 27.2216 136.915 27.2216ZM151.478 14.5653C151.41 13.8778 151.117 13.3437 150.6 12.9631C150.083 12.5824 149.381 12.392 148.495 12.392C147.893 12.392 147.384 12.4773 146.969 12.6477C146.555 12.8125 146.237 13.0426 146.015 13.3381C145.799 13.6335 145.691 13.9688 145.691 14.3438C145.68 14.6562 145.745 14.929 145.887 15.1619C146.035 15.3949 146.237 15.5966 146.492 15.767C146.748 15.9318 147.043 16.0767 147.379 16.2017C147.714 16.321 148.072 16.4233 148.452 16.5085L150.021 16.8835C150.782 17.054 151.481 17.2812 152.117 17.5653C152.754 17.8494 153.305 18.1989 153.771 18.6136C154.237 19.0284 154.597 19.517 154.853 20.0795C155.114 20.642 155.248 21.2869 155.254 22.0142C155.248 23.0824 154.975 24.0085 154.435 24.7926C153.901 25.571 153.129 26.1761 152.117 26.608C151.112 27.0341 149.898 27.2472 148.478 27.2472C147.069 27.2472 145.842 27.0312 144.796 26.5994C143.756 26.1676 142.944 25.5284 142.359 24.6818C141.779 23.8295 141.475 22.7756 141.447 21.5199H145.018C145.058 22.1051 145.225 22.5937 145.521 22.9858C145.822 23.3722 146.222 23.6648 146.722 23.8636C147.228 24.0568 147.799 24.1534 148.435 24.1534C149.06 24.1534 149.603 24.0625 150.063 23.8807C150.529 23.6989 150.89 23.446 151.146 23.1222C151.401 22.7983 151.529 22.4261 151.529 22.0057C151.529 21.6136 151.413 21.2841 151.18 21.017C150.952 20.75 150.617 20.5227 150.174 20.3352C149.737 20.1477 149.2 19.9773 148.563 19.8239L146.663 19.3466C145.191 18.9886 144.029 18.429 143.177 17.6676C142.325 16.9062 141.901 15.8807 141.907 14.5909C141.901 13.5341 142.183 12.6108 142.751 11.821C143.325 11.0312 144.112 10.4148 145.112 9.97159C146.112 9.52841 147.248 9.30682 148.521 9.30682C149.816 9.30682 150.947 9.52841 151.913 9.97159C152.884 10.4148 153.64 11.0312 154.18 11.821C154.719 12.6108 154.998 13.5256 155.015 14.5653H151.478ZM169.31 15.1875C169.19 14.7727 169.023 14.4062 168.807 14.0881C168.591 13.7642 168.327 13.4915 168.014 13.2699C167.707 13.0426 167.355 12.8693 166.957 12.75C166.565 12.6307 166.131 12.571 165.653 12.571C164.761 12.571 163.977 12.7926 163.301 13.2358C162.631 13.679 162.108 14.3239 161.733 15.1705C161.358 16.0114 161.17 17.0398 161.17 18.2557C161.17 19.4716 161.355 20.5057 161.724 21.358C162.094 22.2102 162.616 22.8608 163.293 23.3097C163.969 23.7528 164.767 23.9744 165.688 23.9744C166.523 23.9744 167.236 23.8267 167.827 23.5312C168.423 23.2301 168.878 22.8068 169.19 22.2614C169.509 21.7159 169.668 21.071 169.668 20.3267L170.418 20.4375H165.918V17.6591H173.222V19.858C173.222 21.392 172.898 22.7102 172.25 23.8125C171.602 24.9091 170.71 25.7557 169.574 26.3523C168.438 26.9432 167.136 27.2386 165.67 27.2386C164.034 27.2386 162.597 26.8778 161.358 26.1562C160.119 25.429 159.153 24.3977 158.46 23.0625C157.773 21.7216 157.429 20.1307 157.429 18.2898C157.429 16.875 157.634 15.6136 158.043 14.5057C158.457 13.392 159.037 12.4489 159.781 11.6761C160.526 10.9034 161.392 10.3153 162.381 9.91193C163.369 9.50852 164.44 9.30682 165.594 9.30682C166.582 9.30682 167.503 9.4517 168.355 9.74148C169.207 10.0256 169.963 10.429 170.622 10.9517C171.287 11.4744 171.83 12.0966 172.25 12.8182C172.67 13.5341 172.94 14.3239 173.06 15.1875H169.31Z" fill="#E83838"/>
</svg>
